<svg width="105" height="105" viewBox="0 0 105 105" fill="none" xmlns="http://www.w3.org/2000/svg">
<path d="M52.5 0C23.552 0 0 23.551 0 52.5C0 81.449 23.552 105 52.5 105C81.448 105 105 81.449 105 52.5C105 23.551 81.448 0 52.5 0ZM79.8972 65.0571H25.1028C23.2122 65.0571 21.6782 63.5242 21.6782 61.6325C21.6782 59.7407 23.2122 58.2079 25.1028 58.2079H79.8974C81.788 58.2079 83.322 59.7409 83.322 61.6325C83.322 63.5242 81.7878 65.0571 79.8972 65.0571ZM79.8972 44.5091H25.1028C23.2122 44.5091 21.6782 42.9762 21.6782 41.0845C21.6782 39.1927 23.2122 37.6599 25.1028 37.6599H79.8974C81.788 37.6599 83.322 39.1929 83.322 41.0845C83.322 42.9762 81.7878 44.5091 79.8972 44.5091Z" fill="#FBFFFC"/>
</svg>
