<svg width="350" height="98" viewBox="0 0 350 98" fill="none" xmlns="http://www.w3.org/2000/svg">
<path d="M0 30C0 13.4315 13.4315 0 30 0H320C336.569 0 350 13.4315 350 30V68C350 84.5685 336.569 98 320 98H30C13.4315 98 0 84.5685 0 68V30Z" fill="#FEFFFE"/>
<path d="M85.375 52.7812C85.0938 55.1875 84.2031 57.0469 82.7031 58.3594C81.2135 59.6615 79.2292 60.3125 76.75 60.3125C74.0625 60.3125 71.9062 59.349 70.2812 57.4219C68.6667 55.4948 67.8594 52.9167 67.8594 49.6875V47.5C67.8594 45.3854 68.2344 43.526 68.9844 41.9219C69.7448 40.3177 70.8177 39.0885 72.2031 38.2344C73.5885 37.3698 75.1927 36.9375 77.0156 36.9375C79.4323 36.9375 81.3698 37.6146 82.8281 38.9688C84.2865 40.3125 85.1354 42.1771 85.375 44.5625H82.3594C82.099 42.75 81.5312 41.4375 80.6562 40.625C79.7917 39.8125 78.5781 39.4062 77.0156 39.4062C75.099 39.4062 73.5938 40.1146 72.5 41.5312C71.4167 42.9479 70.875 44.9635 70.875 47.5781V49.7812C70.875 52.25 71.3906 54.2135 72.4219 55.6719C73.4531 57.1302 74.8958 57.8594 76.75 57.8594C78.4167 57.8594 79.6927 57.4844 80.5781 56.7344C81.474 55.974 82.0677 54.6562 82.3594 52.7812H85.375ZM106.984 49.3594C106.984 51.5885 106.609 53.5365 105.859 55.2031C105.109 56.8594 104.047 58.125 102.672 59C101.297 59.875 99.6927 60.3125 97.8594 60.3125C96.0677 60.3125 94.4792 59.875 93.0938 59C91.7083 58.1146 90.6302 56.8594 89.8594 55.2344C89.099 53.599 88.7083 51.7083 88.6875 49.5625V47.9219C88.6875 45.7344 89.0677 43.8021 89.8281 42.125C90.5885 40.4479 91.6615 39.1667 93.0469 38.2812C94.4427 37.3854 96.0365 36.9375 97.8281 36.9375C99.651 36.9375 101.255 37.3802 102.641 38.2656C104.036 39.1406 105.109 40.4167 105.859 42.0938C106.609 43.7604 106.984 45.7031 106.984 47.9219V49.3594ZM104 47.8906C104 45.1927 103.458 43.125 102.375 41.6875C101.292 40.2396 99.776 39.5156 97.8281 39.5156C95.9323 39.5156 94.4375 40.2396 93.3438 41.6875C92.2604 43.125 91.7031 45.125 91.6719 47.6875V49.3594C91.6719 51.974 92.2188 54.0312 93.3125 55.5312C94.4167 57.0208 95.9323 57.7656 97.8594 57.7656C99.7969 57.7656 101.297 57.0625 102.359 55.6562C103.422 54.2396 103.969 52.2135 104 49.5781V47.8906ZM115.359 37.25L122.797 55.8125L130.234 37.25H134.125V60H131.125V51.1406L131.406 41.5781L123.938 60H121.641L114.188 41.625L114.484 51.1406V60H111.484V37.25H115.359ZM142.422 51.0938V60H139.422V37.25H147.812C150.302 37.25 152.25 37.8854 153.656 39.1562C155.073 40.4271 155.781 42.1094 155.781 44.2031C155.781 46.4115 155.089 48.1146 153.703 49.3125C152.328 50.5 150.354 51.0938 147.781 51.0938H142.422ZM142.422 48.6406H147.812C149.417 48.6406 150.646 48.2656 151.5 47.5156C152.354 46.7552 152.781 45.6615 152.781 44.2344C152.781 42.8802 152.354 41.7969 151.5 40.9844C150.646 40.1719 149.474 39.75 147.984 39.7188H142.422V48.6406ZM170.016 54.0625H160.484L158.344 60H155.25L163.938 37.25H166.562L175.266 60H172.188L170.016 54.0625ZM161.391 51.5938H169.125L165.25 40.9531L161.391 51.5938ZM186.672 50.7969H181.328V60H178.312V37.25H185.844C188.406 37.25 190.375 37.8333 191.75 39C193.135 40.1667 193.828 41.8646 193.828 44.0938C193.828 45.5104 193.443 46.7448 192.672 47.7969C191.911 48.849 190.849 49.6354 189.484 50.1562L194.828 59.8125V60H191.609L186.672 50.7969ZM181.328 48.3438H185.938C187.427 48.3438 188.609 47.9583 189.484 47.1875C190.37 46.4167 190.812 45.3854 190.812 44.0938C190.812 42.6875 190.391 41.6094 189.547 40.8594C188.714 40.1094 187.505 39.7292 185.922 39.7188H181.328V48.3438ZM210.609 54.0625H201.078L198.938 60H195.844L204.531 37.25H207.156L215.859 60H212.781L210.609 54.0625ZM201.984 51.5938H209.719L205.844 40.9531L201.984 51.5938ZM232.609 39.7188H225.297V60H222.312V39.7188H215.016V37.25H232.609V39.7188ZM239.203 60H236.203V37.25H239.203V60ZM252.234 56.0156L258.734 37.25H262.016L253.578 60H250.922L242.5 37.25H245.766L252.234 56.0156ZM282.359 49.3594C282.359 51.5885 281.984 53.5365 281.234 55.2031C280.484 56.8594 279.422 58.125 278.047 59C276.672 59.875 275.068 60.3125 273.234 60.3125C271.443 60.3125 269.854 59.875 268.469 59C267.083 58.1146 266.005 56.8594 265.234 55.2344C264.474 53.599 264.083 51.7083 264.062 49.5625V47.9219C264.062 45.7344 264.443 43.8021 265.203 42.125C265.964 40.4479 267.036 39.1667 268.422 38.2812C269.818 37.3854 271.411 36.9375 273.203 36.9375C275.026 36.9375 276.63 37.3802 278.016 38.2656C279.411 39.1406 280.484 40.4167 281.234 42.0938C281.984 43.7604 282.359 45.7031 282.359 47.9219V49.3594ZM279.375 47.8906C279.375 45.1927 278.833 43.125 277.75 41.6875C276.667 40.2396 275.151 39.5156 273.203 39.5156C271.307 39.5156 269.812 40.2396 268.719 41.6875C267.635 43.125 267.078 45.125 267.047 47.6875V49.3594C267.047 51.974 267.594 54.0312 268.688 55.5312C269.792 57.0208 271.307 57.7656 273.234 57.7656C275.172 57.7656 276.672 57.0625 277.734 55.6562C278.797 54.2396 279.344 52.2135 279.375 49.5781V47.8906Z" fill="#2AC35E"/>
</svg>
