<svg width="75" height="66" viewBox="0 0 75 66" fill="none" xmlns="http://www.w3.org/2000/svg">
<path d="M37.5002 13.3232L10.7518 37.7071C10.7518 37.7416 10.7439 37.7922 10.7283 37.8612C10.713 37.9297 10.7048 37.9794 10.7048 38.0147V62.7061C10.7048 63.5976 10.9996 64.3702 11.5889 65.0208C12.1781 65.6717 12.8758 65.9993 13.6822 65.9993H31.5451V46.2456H43.4554V66H61.3181C62.1243 66 62.823 65.6732 63.4114 65.0208C64.0007 64.3709 64.2965 63.5977 64.2965 62.7061V38.0147C64.2965 37.8778 64.2795 37.7744 64.2495 37.7071L37.5002 13.3232Z" fill="white"/>
<path d="M74.4827 32.1511L64.2955 22.7889V1.80085C64.2955 1.32104 64.156 0.92646 63.876 0.61764C63.5984 0.30918 63.2416 0.154951 62.8067 0.154951H53.8751C53.4407 0.154951 53.084 0.30918 52.8046 0.61764C52.5258 0.92646 52.3865 1.32122 52.3865 1.80085V11.8317L41.0359 1.33744C40.0446 0.445753 38.8659 0 37.5011 0C36.1365 0 34.958 0.445753 33.9657 1.33744L0.51693 32.1511C0.206859 32.425 0.0369148 32.7936 0.00530485 33.2567C-0.0261422 33.7194 0.0822116 34.1235 0.330692 34.4662L3.21486 38.2729C3.46334 38.5814 3.78856 38.77 4.19184 38.839C4.56415 38.8736 4.93646 38.7533 5.30878 38.4791L37.5001 8.79668L69.6918 38.4789C69.9404 38.7182 70.2655 38.8376 70.6688 38.8376H70.8086C71.2112 38.7699 71.5358 38.58 71.7856 38.2722L74.67 34.466C74.918 34.1226 75.0267 33.7192 74.9945 33.256C74.9627 32.7942 74.7921 32.4255 74.4827 32.1511Z" fill="white"/>
</svg>
