<svg width="109" height="131" viewBox="0 0 109 131" fill="none" xmlns="http://www.w3.org/2000/svg">
<path d="M55.559 26.1874C64.3956 26.1874 71.559 20.3252 71.559 13.0937C71.559 5.86225 64.3956 0 55.559 0C46.7224 0 39.5589 5.86225 39.5589 13.0937C39.5589 20.3252 46.7224 26.1874 55.559 26.1874Z" fill="white"/>
<path d="M107.015 3.89032C104.377 1.72469 100.087 1.72469 97.4409 3.89032L64.979 30.4535C62.3937 29.0764 59.3147 28.2662 56.0022 28.2662C51.9172 28.2662 48.1906 29.4912 45.3133 31.5092L11.5641 3.89032C8.9204 1.72469 4.63107 1.72469 1.98474 3.89032C-0.661581 6.05378 -0.661581 9.5618 1.98474 11.7274L37.5628 40.8407C38.1547 41.3273 38.8369 41.6857 39.5562 41.955V73.4055C39.5562 74.4525 39.7208 75.4734 39.9995 76.453L18.3007 120.695C16.7054 123.941 18.6324 127.631 22.5979 128.932C23.5455 129.249 24.5223 129.39 25.4805 129.39C28.5462 129.39 31.4526 127.892 32.6657 125.418L51.7978 86.4015C53.1435 86.6904 54.545 86.8598 56.0022 86.8598C57.6717 86.8598 59.2775 86.6535 60.8038 86.2755L76.1376 126.545C77.1701 129.26 80.2279 131 83.5245 131C84.2863 131 85.064 130.907 85.831 130.707C89.908 129.666 92.1907 126.117 90.9167 122.781L73.0639 75.91C72.8914 75.4539 72.6498 75.0303 72.3658 74.6284C72.4136 74.2223 72.4428 73.8161 72.4428 73.4055V41.7269C72.4428 41.1839 72.3871 40.6452 72.3101 40.1152L107.002 11.7253C109.664 9.56614 109.664 6.05378 107.015 3.89032Z" fill="white"/>
</svg>
