<svg width="69" height="78" viewBox="0 0 69 78" fill="none" xmlns="http://www.w3.org/2000/svg">
<path d="M34.4999 43.9902C40.0426 43.9902 53.0741 37.5136 53.0741 21.9949C53.0743 9.8474 51.3855 0 34.4999 0C17.6145 0 15.9257 9.8474 15.9257 21.9951C15.9257 37.5136 28.9572 43.9902 34.4999 43.9902ZM18.7017 18.3243C20.0064 15.8743 22.8287 13.0431 28.8982 13.1687C28.8982 13.1687 32.5158 21.6886 50.2762 17.8625C50.3479 19.2234 50.3704 20.6121 50.3704 21.9951C50.3704 29.5806 46.9208 34.2806 44.0266 36.8876C40.3801 40.1728 36.3314 41.3651 34.4999 41.3651C32.6683 41.3651 28.6197 40.1728 24.9731 36.8876C22.079 34.2806 18.6293 29.5806 18.6293 21.9951C18.6296 20.768 18.6479 19.5366 18.7017 18.3243Z" fill="white"/>
<path d="M68.9835 66.5476C68.0353 60.8225 66.0829 53.4481 62.1673 50.8274C59.4935 49.0375 50.1646 44.1983 46.181 42.1318L46.1121 42.0961C45.6567 41.8598 45.1007 41.9071 44.6945 42.2167C42.6077 43.8074 40.3217 44.8795 37.9002 45.4031C37.4724 45.4956 37.1213 45.7908 36.9658 46.1885L34.4999 52.4994L32.034 46.1885C31.8785 45.7908 31.5274 45.4956 31.0996 45.4031C28.6781 44.8795 26.3921 43.8074 24.3053 42.2167C23.8991 41.9071 23.3431 41.8596 22.8877 42.0961C18.9514 44.1383 9.50834 49.0761 6.84418 50.8196C2.33675 53.7679 0.365737 64.4385 0.0165193 66.5476C-0.0181727 66.7568 0.00204523 66.9707 0.0746457 67.1704C0.235929 67.6125 4.37277 78 34.4999 78C64.627 78 68.7638 67.6125 68.9251 67.1704C68.998 66.9707 69.0182 66.7566 68.9835 66.5476ZM55.1007 63.0541L49.2038 64.8387L43.3068 63.0541V59.9735H55.1007V63.0541Z" fill="white"/>
</svg>
