<svg width="78" height="83" viewBox="0 0 78 83" fill="none" xmlns="http://www.w3.org/2000/svg">
<path d="M48.7502 44.9581C46.953 44.9581 45.5004 46.5077 45.5004 48.4162V62.25C45.5004 64.1554 44.0442 65.7081 42.25 65.7081H32.4999V13.8331C32.4999 10.8797 30.7319 8.24098 28.0736 7.25883L27.1113 6.91624H42.25C44.0442 6.91624 45.5004 8.46895 45.5004 10.375V20.75C45.5004 22.6586 46.953 24.2081 48.7502 24.2081C50.5474 24.2081 52 22.6586 52 20.75V10.375C52 4.65495 47.6255 0 42.25 0H7.31253C7.18875 0 7.0852 0.0588914 6.96499 0.0759887C6.80848 0.0620575 6.65911 0 6.50022 0C2.91537 0 0 3.10161 0 6.91624V69.1662C0 72.1197 1.76803 74.7584 4.42632 75.7405L23.9853 82.6783C24.6482 82.8961 25.3076 83 26.0003 83C29.5851 83 32.4999 79.8978 32.4999 76.0831V72.625H42.25C47.6255 72.625 52 67.9701 52 62.25V48.4162C52 46.5077 50.5474 44.9581 48.7502 44.9581Z" fill="white"/>
<path d="M77.0405 36.0257L63.9495 22.0264C63.0141 21.0254 61.6065 20.7242 60.3828 21.2664C59.1622 21.8092 58.3634 23.0864 58.3634 24.5007V35.0003H45.273C43.4663 35.0003 42 36.5678 42 38.5C42 40.4321 43.4663 41.9996 45.273 41.9996H58.3634V52.4993C58.3634 53.9136 59.1622 55.1908 60.3828 55.7336C61.6065 56.2758 63.0141 55.9746 63.9495 54.9742L77.0405 40.9743C78.3198 39.6061 78.3198 37.3939 77.0405 36.0257Z" fill="white"/>
</svg>
