<svg width="124" height="127" viewBox="0 0 124 127" fill="none" xmlns="http://www.w3.org/2000/svg">
<path d="M32.0282 67.6924H28.0294V79.963H32.0282V67.6924Z" fill="white"/>
<path d="M116.002 6.33977H107.813C107.053 2.83654 104 0.204509 100.349 0.204509C98.3059 0.204509 96.3825 1.01845 94.9369 2.4991L94.0092 3.44802L93.0815 2.4991C91.6339 1.01845 89.7125 0.204509 87.6691 0.204509C84.0182 0.204509 80.9672 2.83654 80.2054 6.33977H72.0159C67.6053 6.33977 64.0184 10.0087 64.0184 14.5201V55.4219C64.0184 59.9334 67.6053 63.6023 72.0159 63.6023H92.0098V97.3462C92.0098 111.443 80.7992 122.91 67.0175 122.91C56.6127 122.91 47.3855 116.3 43.7106 106.549H46.0239V94.2786H48.0233V53.3768H38.0263V48.1046L43.9865 42.1718V22.7005V16.7677V6.13527C43.9865 2.75269 41.2953 0 37.9884 0C36.4468 0 35.0533 0.615572 33.9896 1.59517C32.9259 0.613527 31.5323 0 29.9908 0C28.4493 0 27.0557 0.615572 25.992 1.59517C24.9284 0.613527 23.5348 0 21.9933 0C20.4517 0 19.0582 0.615572 17.9945 1.59517C16.9308 0.613527 15.5372 0 13.9957 0C10.6887 0 7.99755 2.75269 7.99755 6.13527V6.91853C7.36974 6.68948 6.70195 6.54224 5.99816 6.54224C2.69118 6.54224 0 9.29493 0 12.6775V36.0201L7.99755 44.2005V53.3768H0.0379884V94.2786H34.0276V106.549H39.4739C43.3367 118.662 54.4333 127 67.0175 127C83.0026 127 96.0086 113.697 96.0086 97.3462V63.6023H116.002C120.413 63.6023 124 59.9334 124 55.4219V14.5201C124 10.0087 120.413 6.33977 116.002 6.33977ZM39.6578 57.467H44.0245V90.1884H39.6578C39.8818 89.5462 40.0257 88.8632 40.0257 88.1433V59.5121C40.0257 58.7922 39.8818 58.1091 39.6578 57.467ZM35.989 6.13527C35.989 5.00842 36.8867 4.09018 37.9884 4.09018C39.09 4.09018 39.9877 5.00842 39.9877 6.13527V16.7677V22.7005C39.9877 23.8273 39.09 24.7456 37.9884 24.7456C36.8867 24.7456 35.989 23.8273 35.989 22.7005V6.13527ZM27.9914 6.13527C27.9914 5.00842 28.8891 4.09018 29.9908 4.09018C31.0925 4.09018 31.9902 5.00842 31.9902 6.13527V22.7005C31.9902 23.8273 31.0925 24.7456 29.9908 24.7456C28.8891 24.7456 27.9914 23.8273 27.9914 22.7005V6.13527ZM19.9939 6.13527C19.9939 5.00842 20.8916 4.09018 21.9933 4.09018C23.0949 4.09018 23.9926 5.00842 23.9926 6.13527V22.7005C23.9926 23.8273 23.0949 24.7456 21.9933 24.7456C20.8916 24.7456 19.9939 23.8273 19.9939 22.7005V6.13527ZM11.9963 12.6775V6.13527C11.9963 5.00842 12.894 4.09018 13.9957 4.09018C15.0974 4.09018 15.9951 5.00842 15.9951 6.13527V22.7005C15.9951 23.8273 15.0974 24.7456 13.9957 24.7456C12.894 24.7456 11.9963 23.8273 11.9963 22.7005V12.6775ZM3.99877 34.3268V12.6775C3.99877 11.5507 4.8965 10.6324 5.99816 10.6324C7.09982 10.6324 7.99755 11.5507 7.99755 12.6775V22.7005V29.8849L16.5809 38.6644L19.4081 35.7727L12.3762 28.5801C12.894 28.7294 13.4299 28.8357 13.9957 28.8357C15.5372 28.8357 16.9308 28.2202 17.9945 27.2406C19.0582 28.2222 20.4517 28.8357 21.9933 28.8357C23.5348 28.8357 24.9284 28.2202 25.992 27.2406C27.0557 28.2222 28.4493 28.8357 29.9908 28.8357C31.5323 28.8357 32.9259 28.2202 33.9896 27.2406C35.0533 28.2222 36.4468 28.8357 37.9884 28.8357C38.6921 28.8357 39.3599 28.6885 39.9877 28.4595V40.4457L34.0276 46.3785V53.3768H11.9963V42.5072L3.99877 34.3268ZM36.027 88.1433C36.027 89.2702 35.1292 90.1884 34.0276 90.1884H4.03676V57.467H34.0276C35.1292 57.467 36.027 58.3852 36.027 59.5121V88.1433ZM42.0251 102.459H38.0263V94.2786H42.0251V102.459ZM87.6691 4.29469C88.6448 4.29469 89.5626 4.68325 90.2543 5.39085L94.0092 9.23153L97.764 5.39085C98.4558 4.68325 99.3735 4.29469 100.349 4.29469C102.367 4.29469 104.006 5.97166 104.006 8.03515C104.006 9.03316 103.626 9.97185 102.934 10.6795L94.0092 19.8087L85.0839 10.6795C84.3921 9.97185 84.0123 9.03316 84.0123 8.03515C84.0123 5.97166 85.6517 4.29469 87.6691 4.29469ZM112.004 18.6103V26.7907H76.0147V18.6103H87.1833L94.0092 25.5922L100.835 18.6103H112.004ZM98.008 59.5121H90.0104V55.4219H98.008V59.5121ZM120.001 51.3317H116.002V55.4219H120.001C120.001 57.6776 118.208 59.5121 116.002 59.5121H102.007V55.4219H112.004V51.3317H76.0147V55.4219H86.0116V59.5121H72.0159C69.8106 59.5121 68.0172 57.6776 68.0172 55.4219H72.0159V51.3317H68.0172V14.5201C68.0172 12.2644 69.8106 10.43 72.0159 10.43H80.4134C80.7812 11.5977 81.3831 12.6775 82.2548 13.5712L83.1845 14.5201H72.0159V30.8808H116.002V14.5201H104.834L105.762 13.5712C106.635 12.6775 107.237 11.5977 107.605 10.43H116.002C118.208 10.43 120.001 12.2644 120.001 14.5201V51.3317Z" fill="white"/>
<path d="M78.0141 34.971C74.7071 34.971 72.0159 37.7237 72.0159 41.1063C72.0159 44.4889 74.7071 47.2415 78.0141 47.2415C81.3211 47.2415 84.0123 44.4889 84.0123 41.1063C84.0123 37.7237 81.3211 34.971 78.0141 34.971ZM78.0141 43.1514C76.9124 43.1514 76.0147 42.2331 76.0147 41.1063C76.0147 39.9794 76.9124 39.0612 78.0141 39.0612C79.1158 39.0612 80.0135 39.9794 80.0135 41.1063C80.0135 42.2331 79.1158 43.1514 78.0141 43.1514Z" fill="white"/>
<path d="M88.011 47.2415H100.007V34.971H88.011V47.2415ZM92.0098 39.0612H96.0086V43.1514H92.0098V39.0612Z" fill="white"/>
<path d="M104.006 47.2415H116.002V34.971H104.006V47.2415ZM108.005 39.0612H112.004V43.1514H108.005V39.0612Z" fill="white"/>
</svg>
