<svg width="107" height="121" viewBox="0 0 107 121" fill="none" xmlns="http://www.w3.org/2000/svg">
<path d="M53.4994 8C36.6819 8 23 18.123 23 30.567V39.685C23 43.7183 27.4352 47 32.8862 47H74.1151C79.566 47 84 43.7183 84 39.685V30.567C84 18.123 70.3175 8 53.4994 8ZM79.2345 39.685C79.2345 41.7735 76.9363 43.4725 74.1151 43.4725H32.8862C30.0624 43.4725 27.7655 41.7735 27.7655 39.685V30.567C27.7655 20.0682 39.3109 11.5261 53.4994 11.5261C67.6891 11.5261 79.2345 20.0668 79.2345 30.567V39.685Z" fill="white"/>
<path d="M16.8093 56C13.0544 56 10 58.1077 10 60.6994V63.2997C10 65.8914 13.0544 68 16.8093 68H24.1913C27.9462 68 31 65.8914 31 63.2997V60.6994C31 58.1077 27.9462 56 24.1913 56H16.8093ZM26.1154 60.6994V63.2997C26.1154 64.0326 25.2525 64.6291 24.1913 64.6291H16.8093C15.7468 64.6291 14.8839 64.0326 14.8839 63.2997V60.6994C14.8839 59.9665 15.7468 59.3709 16.8093 59.3709H24.1913C25.2525 59.3709 26.1154 59.9665 26.1154 60.6994Z" fill="white"/>
<path d="M46.7685 56C43.037 56 40 58.1077 40 60.6994V63.2997C40 65.8914 43.037 68 46.7685 68H60.2315C63.963 68 67 65.8914 67 63.2997V60.6994C67 58.1077 63.963 56 60.2315 56H46.7685ZM62.1436 60.6994V63.2997C62.1436 64.0326 61.2864 64.6291 60.2315 64.6291H46.7685C45.7149 64.6291 44.8551 64.0326 44.8551 63.2997V60.6994C44.8551 59.9665 45.7149 59.3709 46.7685 59.3709H60.2315C61.2864 59.3709 62.1436 59.9665 62.1436 60.6994Z" fill="white"/>
<path d="M76 60.6994V63.2997C76 65.8914 79.0537 68 82.8085 68H90.1902C93.945 68 97 65.8914 97 63.2997V60.6994C97 58.1077 93.945 56 90.1902 56H82.8085C79.0537 56 76 58.1077 76 60.6994ZM92.1162 60.6994V63.2997C92.1162 64.0326 91.252 64.6291 90.1902 64.6291H82.8085C81.748 64.6291 80.8838 64.0326 80.8838 63.2997V60.6994C80.8838 59.9665 81.748 59.3709 82.8085 59.3709H90.1902C91.252 59.3709 92.1162 59.9665 92.1162 60.6994Z" fill="white"/>
<path d="M80.2503 0H75.5381C74.2157 0 73.1427 0.794358 73.1427 1.77287C73.1427 2.75138 74.2157 3.54526 75.5381 3.54526H80.2503C92.3587 3.54526 102.209 10.8337 102.209 19.7927V77.8812C102.209 82.2795 97.3728 85.8575 91.429 85.8575H66.8214V77.9503H69.6737C70.9962 77.9503 72.0697 77.1555 72.0697 76.1779C72.0697 75.1975 70.9962 74.4051 69.6737 74.4051H37.3257C36.0038 74.4051 34.9302 75.1975 34.9302 76.1779C34.9302 77.1555 36.0038 77.9503 37.3257 77.9503H40.1786V85.8575H15.571C9.62653 85.8575 4.79087 82.2795 4.79087 77.8812V19.7927C4.79087 10.8337 14.6413 3.54526 26.7497 3.54526H61.8168C63.1406 3.54526 64.2129 2.75138 64.2129 1.77287C64.2129 0.794358 63.1406 0 61.8168 0H26.7497C12.0002 0 0 8.87854 0 19.7927V77.8812C0 84.2351 6.98477 89.4022 15.571 89.4022H40.1786V90.1994C40.1786 91.1775 41.2503 91.9718 42.574 91.9718C43.8971 91.9718 44.9695 91.1775 44.9695 90.1994V77.9503H62.0293V100.085H44.9695V98.7073C44.9695 97.7279 43.8971 96.9349 42.574 96.9349C41.2503 96.9349 40.1786 97.7279 40.1786 98.7073V119.228C40.1786 120.206 41.2503 121 42.574 121H64.426C65.7504 121 66.8214 120.206 66.8214 119.228V89.4022H91.429C100.016 89.4022 107 84.2351 107 77.8812V19.7927C107 8.87854 95.0004 0 80.2503 0ZM44.9695 117.455V103.63H62.0293V117.455H44.9695Z" fill="white"/>
<path d="M57 110.5C57 111.88 55.4339 113 53.4997 113C51.5673 113 50 111.88 50 110.5C50 109.12 51.5673 108 53.4997 108C55.4339 108 57 109.12 57 110.5Z" fill="white"/>
<path d="M45.6981 22H37.3019C36.0311 22 35 22.82 35 23.8306V37.1694C35 38.1815 36.0311 39 37.3019 39H45.6981C46.9683 39 48 38.1815 48 37.1694V23.8306C48 22.82 46.9683 22 45.6981 22ZM43.3949 25.6622V28.6628H39.6039V25.6622H43.3949ZM39.6039 35.3388V32.3372H43.3949V35.3393H39.6039V35.3388Z" fill="white"/>
<path d="M61.302 22C60.0317 22 59 22.82 59 23.8306V37.1694C59 38.1815 60.0317 39 61.302 39H69.698C70.9683 39 72 38.1815 72 37.1694V30.4944C72 29.4832 70.9683 28.6628 69.698 28.6628H63.6053V25.6622H69.698C70.9683 25.6622 72 24.8417 72 23.8306C72 22.82 70.9683 22 69.698 22H61.302ZM63.6053 35.3388V32.3372H67.3959V35.3393H63.6053V35.3388Z" fill="white"/>
<path d="M53.1491 34.9566L51.2718 37.4951C50.6379 38.3502 51.1508 39.3902 52.4146 39.8168C53.6839 40.2453 55.2199 39.8958 55.8504 39.0435L57.7283 36.5059C58.3623 35.6503 57.8487 34.6104 56.5842 34.1837C55.3177 33.7552 53.781 34.1019 53.1491 34.9566Z" fill="white"/>
</svg>
