<svg width="77" height="73" viewBox="0 0 77 73" fill="none" xmlns="http://www.w3.org/2000/svg">
<path d="M38.5003 0C17.2443 0 0 16.3277 0 36.4808C0 56.6532 17.2443 73 38.5001 73C59.7678 73 76.9974 56.653 76.9974 36.4808C76.9976 16.3277 59.7678 0 38.5003 0ZM41.2439 56.7904C40.3497 57.5448 39.3134 57.924 38.1394 57.924C36.9249 57.924 35.8654 57.5516 34.961 56.8055C34.0553 56.0607 33.6015 55.0179 33.6015 53.6781C33.6015 52.4896 34.0406 51.4892 34.9161 50.6785C35.7916 49.8678 36.8655 49.4624 38.1394 49.4624C39.3931 49.4624 40.4483 49.8678 41.3048 50.6785C42.16 51.4892 42.589 52.4894 42.589 53.6781C42.5874 54.9986 42.1395 56.0362 41.2439 56.7904ZM52.3936 30.5848C51.7066 31.7925 50.8907 32.834 49.9443 33.7121C49.0007 34.5901 47.3036 36.0658 44.8541 38.1406C44.1787 38.726 43.6352 39.2399 43.228 39.6822C42.8208 40.1261 42.5164 40.5313 42.3178 40.8996C42.1177 41.2678 41.9642 41.6361 41.8554 42.0043C41.7467 42.3711 41.583 43.0184 41.3612 43.943C40.9844 45.9052 39.8003 46.8861 37.8103 46.8861C36.7754 46.8861 35.9059 46.566 35.1971 45.9243C34.4912 45.2826 34.1391 44.3304 34.1391 43.0664C34.1391 41.4821 34.3985 40.1094 34.9159 38.9484C35.4305 37.7873 36.1189 36.7692 36.9741 35.8912C37.8306 35.0132 38.9842 33.9716 40.4379 32.7638C41.7119 31.7072 42.6323 30.9103 43.1989 30.373C43.767 29.8344 44.244 29.2353 44.6309 28.5757C45.0208 27.9148 45.2121 27.1989 45.2121 26.4254C45.2121 24.9154 44.6223 23.643 43.4368 22.6056C42.2527 21.5683 40.725 21.0488 38.8539 21.0488C36.664 21.0488 35.0523 21.5723 34.0175 22.6193C32.9826 23.6664 32.1087 25.208 31.3913 27.2458C30.713 29.3783 29.4289 30.4445 27.5403 30.4445C26.4257 30.4445 25.4852 30.0721 24.7185 29.3273C23.9532 28.5825 23.5706 27.776 23.5706 26.9077C23.5706 25.1159 24.1779 23.2994 25.391 21.4596C26.6056 19.6198 28.3767 18.0959 30.7057 16.8895C33.0332 15.6817 35.7509 15.077 38.8539 15.077C41.7395 15.077 44.286 15.5826 46.4948 16.5926C48.7036 17.6011 50.4109 18.9739 51.6153 20.7106C52.8183 22.4459 53.4211 24.3325 53.4211 26.3703C53.424 27.9713 53.0806 29.377 52.3936 30.5848Z" fill="white"/>
</svg>
