<svg width="350" height="91" viewBox="0 0 350 91" fill="none" xmlns="http://www.w3.org/2000/svg">
<rect width="350" height="91" rx="30" fill="white"/>
<path d="M114.125 57H111.109V46.4844H99.6406V57H96.6406V34.25H99.6406V44.0312H111.109V34.25H114.125V57ZM122.672 57H119.672V34.25H122.672V57ZM134.875 46.8594C132.302 46.1198 130.427 45.2135 129.25 44.1406C128.083 43.0573 127.5 41.724 127.5 40.1406C127.5 38.349 128.214 36.8698 129.641 35.7031C131.078 34.526 132.943 33.9375 135.234 33.9375C136.797 33.9375 138.188 34.2396 139.406 34.8438C140.635 35.4479 141.583 36.2812 142.25 37.3438C142.927 38.4062 143.266 39.5677 143.266 40.8281H140.25C140.25 39.4531 139.812 38.375 138.938 37.5938C138.062 36.8021 136.828 36.4062 135.234 36.4062C133.755 36.4062 132.599 36.7344 131.766 37.3906C130.943 38.0365 130.531 38.9375 130.531 40.0938C130.531 41.0208 130.922 41.8073 131.703 42.4531C132.495 43.0885 133.833 43.6719 135.719 44.2031C137.615 44.7344 139.094 45.3229 140.156 45.9688C141.229 46.6042 142.021 47.349 142.531 48.2031C143.052 49.0573 143.312 50.0625 143.312 51.2188C143.312 53.0625 142.594 54.5417 141.156 55.6562C139.719 56.7604 137.797 57.3125 135.391 57.3125C133.828 57.3125 132.37 57.0156 131.016 56.4219C129.661 55.8177 128.615 54.9948 127.875 53.9531C127.146 52.9115 126.781 51.7292 126.781 50.4062H129.797C129.797 51.7812 130.302 52.8698 131.312 53.6719C132.333 54.4635 133.693 54.8594 135.391 54.8594C136.974 54.8594 138.188 54.5365 139.031 53.8906C139.875 53.2448 140.297 52.3646 140.297 51.25C140.297 50.1354 139.906 49.276 139.125 48.6719C138.344 48.0573 136.927 47.4531 134.875 46.8594ZM162.891 36.7188H155.578V57H152.594V36.7188H145.297V34.25H162.891V36.7188ZM183.328 46.3594C183.328 48.5885 182.953 50.5365 182.203 52.2031C181.453 53.8594 180.391 55.125 179.016 56C177.641 56.875 176.036 57.3125 174.203 57.3125C172.411 57.3125 170.823 56.875 169.438 56C168.052 55.1146 166.974 53.8594 166.203 52.2344C165.443 50.599 165.052 48.7083 165.031 46.5625V44.9219C165.031 42.7344 165.411 40.8021 166.172 39.125C166.932 37.4479 168.005 36.1667 169.391 35.2812C170.786 34.3854 172.38 33.9375 174.172 33.9375C175.995 33.9375 177.599 34.3802 178.984 35.2656C180.38 36.1406 181.453 37.4167 182.203 39.0938C182.953 40.7604 183.328 42.7031 183.328 44.9219V46.3594ZM180.344 44.8906C180.344 42.1927 179.802 40.125 178.719 38.6875C177.635 37.2396 176.12 36.5156 174.172 36.5156C172.276 36.5156 170.781 37.2396 169.688 38.6875C168.604 40.125 168.047 42.125 168.016 44.6875V46.3594C168.016 48.974 168.562 51.0312 169.656 52.5312C170.76 54.0208 172.276 54.7656 174.203 54.7656C176.141 54.7656 177.641 54.0625 178.703 52.6562C179.766 51.2396 180.312 49.2135 180.344 46.5781V44.8906ZM175.641 28.125H179.141L174.953 32.7188H172.625L175.641 28.125ZM196.172 47.7969H190.828V57H187.812V34.25H195.344C197.906 34.25 199.875 34.8333 201.25 36C202.635 37.1667 203.328 38.8646 203.328 41.0938C203.328 42.5104 202.943 43.7448 202.172 44.7969C201.411 45.849 200.349 46.6354 198.984 47.1562L204.328 56.8125V57H201.109L196.172 47.7969ZM190.828 45.3438H195.438C196.927 45.3438 198.109 44.9583 198.984 44.1875C199.87 43.4167 200.312 42.3854 200.312 41.0938C200.312 39.6875 199.891 38.6094 199.047 37.8594C198.214 37.1094 197.005 36.7292 195.422 36.7188H190.828V45.3438ZM210.766 57H207.766V34.25H210.766V57ZM233 49.7812C232.719 52.1875 231.828 54.0469 230.328 55.3594C228.839 56.6615 226.854 57.3125 224.375 57.3125C221.688 57.3125 219.531 56.349 217.906 54.4219C216.292 52.4948 215.484 49.9167 215.484 46.6875V44.5C215.484 42.3854 215.859 40.526 216.609 38.9219C217.37 37.3177 218.443 36.0885 219.828 35.2344C221.214 34.3698 222.818 33.9375 224.641 33.9375C227.057 33.9375 228.995 34.6146 230.453 35.9688C231.911 37.3125 232.76 39.1771 233 41.5625H229.984C229.724 39.75 229.156 38.4375 228.281 37.625C227.417 36.8125 226.203 36.4062 224.641 36.4062C222.724 36.4062 221.219 37.1146 220.125 38.5312C219.042 39.9479 218.5 41.9635 218.5 44.5781V46.7812C218.5 49.25 219.016 51.2135 220.047 52.6719C221.078 54.1302 222.521 54.8594 224.375 54.8594C226.042 54.8594 227.318 54.4844 228.203 53.7344C229.099 52.974 229.693 51.6562 229.984 49.7812H233ZM254.609 46.3594C254.609 48.5885 254.234 50.5365 253.484 52.2031C252.734 53.8594 251.672 55.125 250.297 56C248.922 56.875 247.318 57.3125 245.484 57.3125C243.693 57.3125 242.104 56.875 240.719 56C239.333 55.1146 238.255 53.8594 237.484 52.2344C236.724 50.599 236.333 48.7083 236.312 46.5625V44.9219C236.312 42.7344 236.693 40.8021 237.453 39.125C238.214 37.4479 239.286 36.1667 240.672 35.2812C242.068 34.3854 243.661 33.9375 245.453 33.9375C247.276 33.9375 248.88 34.3802 250.266 35.2656C251.661 36.1406 252.734 37.4167 253.484 39.0938C254.234 40.7604 254.609 42.7031 254.609 44.9219V46.3594ZM251.625 44.8906C251.625 42.1927 251.083 40.125 250 38.6875C248.917 37.2396 247.401 36.5156 245.453 36.5156C243.557 36.5156 242.062 37.2396 240.969 38.6875C239.885 40.125 239.328 42.125 239.297 44.6875V46.3594C239.297 48.974 239.844 51.0312 240.938 52.5312C242.042 54.0208 243.557 54.7656 245.484 54.7656C247.422 54.7656 248.922 54.0625 249.984 52.6562C251.047 51.2396 251.594 49.2135 251.625 46.5781V44.8906Z" fill="#2AC35E"/>
</svg>
