<svg width="50" height="50" viewBox="0 0 50 50" fill="none" xmlns="http://www.w3.org/2000/svg">
<path d="M24.9993 0C11.1927 0 0 11.1935 0 24.9995C0 38.8055 11.1927 50 24.9993 50C38.8059 50 50 38.8062 50 24.9995C50 11.1928 38.8059 0 24.9993 0ZM36.8837 17.9908L34.5092 20.3653L29.6757 15.5322L27.842 17.3658L32.6756 22.1993L20.8201 34.0537L15.9869 29.221L14.1533 31.0547L18.9865 35.8878L17.8051 37.0692L17.7826 37.0467C17.6516 37.2623 17.4386 37.4197 17.1856 37.4758L12.6784 38.4808C12.6109 38.496 12.5423 38.5033 12.4744 38.5033C12.2284 38.5033 11.9894 38.4065 11.8122 38.2288C11.5849 38.0023 11.4902 37.6752 11.5602 37.3617L12.5648 32.8558C12.6214 32.603 12.7791 32.3895 12.9944 32.2588L12.9716 32.236L32.05 13.1568C32.3297 12.8777 32.7841 12.8777 33.0637 13.1577L36.8841 16.9772C37.1637 17.2568 37.1637 17.7112 36.8837 17.9908Z" fill="white"/>
</svg>
