<svg width="57" height="54" viewBox="0 0 57 54" fill="none" xmlns="http://www.w3.org/2000/svg">
<path d="M56.1334 49.1854L42.0819 35.8186C45.6948 31.8904 47.6743 26.9479 47.6743 21.8025C47.6743 9.78078 36.9807 0 23.8371 0C10.6935 0 0 9.78078 0 21.8025C0 33.8242 10.6935 43.605 23.8371 43.605C28.7714 43.605 33.4736 42.2437 37.4937 39.6597L51.652 53.1279C52.2438 53.69 53.0397 54 53.8927 54C54.7 54 55.4659 53.7185 56.0473 53.2066C57.2827 52.1193 57.3221 50.3163 56.1334 49.1854ZM23.8371 5.6876C33.5523 5.6876 41.4559 12.9165 41.4559 21.8025C41.4559 30.6884 33.5523 37.9174 23.8371 37.9174C14.122 37.9174 6.21838 30.6884 6.21838 21.8025C6.21838 12.9165 14.122 5.6876 23.8371 5.6876Z" fill="#2AC45E"/>
</svg>
