<svg width="100" height="102" viewBox="0 0 100 102" fill="none" xmlns="http://www.w3.org/2000/svg">
<path d="M50 0C22.4308 0 0 22.8774 0 51C0 79.1226 22.4308 102 50 102C77.5692 102 100 79.1226 100 51C100 22.8774 77.5692 0 50 0ZM74.0385 54.9231H53.8462V76.5C53.8462 78.6655 52.1231 80.4231 50 80.4231C47.8769 80.4231 46.1538 78.6655 46.1538 76.5V54.9231H25.9615C23.8385 54.9231 22.1154 53.1655 22.1154 51C22.1154 48.8345 23.8385 47.0769 25.9615 47.0769H46.1538V27.4615C46.1538 25.296 47.8769 23.5385 50 23.5385C52.1231 23.5385 53.8462 25.296 53.8462 27.4615V47.0769H74.0385C76.1615 47.0769 77.8846 48.8345 77.8846 51C77.8846 53.1655 76.1615 54.9231 74.0385 54.9231Z" fill="white"/>
</svg>
